<svg width="50" height="50" viewBox="0 0 50 50" fill="none" xmlns="http://www.w3.org/2000/svg">
<g id="Weather">
<g id="Group 1808">
<path id="Vector 16" d="M10.2667 34C2.73408 33.2159 3.612 20.5674 10.7957 20.4659C9.57216 6.90942 24.8186 4.03159 27.4479 13.6988C34.4693 9.85714 37.9797 14.2899 38.8413 18.5324C47.6055 20.4659 45.6804 33.1348 41.2855 34H10.2667Z" fill="#97D5FA"/>
<path id="Ellipse 232" d="M35.5262 36.8718C35.5262 38.5711 34.1124 39.9487 32.3683 39.9487C30.6243 39.9487 29.2104 38.5711 29.2104 36.8718C29.2104 35.1725 32.3683 29.6923 32.3683 29.6923C32.3683 29.6923 35.5262 35.1725 35.5262 36.8718Z" fill="#5A9BFE"/>
<path id="Ellipse 233" d="M28.1578 27.6667C28.1578 29.366 26.744 30.7436 24.9999 30.7436C23.2559 30.7436 21.842 29.366 21.842 27.6667C21.842 25.9673 24.9999 20.4872 24.9999 20.4872C24.9999 20.4872 28.1578 25.9673 28.1578 27.6667Z" fill="#5A9BFE"/>
<path id="Ellipse 234" d="M20.7895 38.9231C20.7895 40.6224 19.3757 42 17.6316 42C15.8876 42 14.4738 40.6224 14.4738 38.9231C14.4738 37.2237 17.6316 31.7436 17.6316 31.7436C17.6316 31.7436 20.7895 37.2237 20.7895 38.9231Z" fill="#5A9BFE"/>
</g>
</g>
</svg>
